# xmcd CD database file
#
# Track frame offsets:
#	150
#	17687
#	33160
#	50822
#	64292
#	81950
#	100520
#	113497
#	133825
#	160605
#	177325
#	191785
#	209070
#
# Disc length: 3151 seconds
#
# Revision: 2
# Processed by: cddbd v1.5.2PL0 Copyright (c) Steve Scherf et al.
# Submitted via: CDex 1.70beta2
#
DISCID=b20c4d0d
DTITLE=天野滋 - あまのしげる
DYEAR=1976
DGENRE=Blues
TTITLE0=かくれんぼ鬼は誰
TTITLE1=電信柱帰り道
TTITLE2=淋しがり屋かごろつきか
TTITLE3=もう一度逢えたら
TTITLE4=恋は終わりのない追いかけっこ
TTITLE5=歌は世につれ
TTITLE6=野良猫夜話
TTITLE7=黄昏に語りて
TTITLE8=追想の歌
TTITLE9=コンサートが始まる
TTITLE10=チグハグな夜
TTITLE11=優しさがわかりかけて
TTITLE12=スターダストテレフォンライン
EXTD=YEAR: 1976
EXTT0=
EXTT1=
EXTT2=
EXTT3=
EXTT4=
EXTT5=
EXTT6=
EXTT7=
EXTT8=
EXTT9=
EXTT10=
EXTT11=
EXTT12=
PLAYORDER=
